<svg width="20" height="20" viewBox="0 0 20 20" fill="none" xmlns="http://www.w3.org/2000/svg">
<path d="M10.0096 5.21303L14.7319 9.4913C15.4805 10.1696 16.6899 10.1696 17.4385 9.4913C18.1872 8.81304 18.1872 7.71739 17.4385 7.03912L11.3533 1.50867C10.9947 1.18301 10.5078 1 10 1C9.49223 1 9.00532 1.18301 8.64667 1.50867L2.56149 7.03912C1.81284 7.71739 1.81284 8.81304 2.56149 9.4913C3.31014 10.1696 4.5195 10.1696 5.26815 9.4913L10.0096 5.21303Z" fill="#CACACA"/>
<path d="M10.0096 14.2131L14.7319 18.4913C15.0905 18.817 15.5774 19 16.0852 19C16.593 19 17.0799 18.817 17.4385 18.4913C18.1872 17.8131 18.1872 16.7174 17.4385 16.0391L11.3533 10.5087C10.6047 9.83043 9.39532 9.83043 8.64667 10.5087L2.56149 16.0218C1.81284 16.7 1.81284 17.7957 2.56149 18.4739C2.92013 18.7996 3.40705 18.9826 3.91482 18.9826C4.42259 18.9826 4.9095 18.7996 5.26815 18.4739L10.0096 14.2131Z" fill="#CACACA"/>
</svg>
